<?xml version="1.0" encoding="utf-8"?>
<!-- Generator: Adobe Illustrator 24.3.0, SVG Export Plug-In . SVG Version: 6.00 Build 0)  -->
<svg version="1.1" id="Layer_1" xmlns="http://www.w3.org/2000/svg" xmlns:xlink="http://www.w3.org/1999/xlink" x="0px" y="0px"
	 viewBox="0 0 323.2 46.3" style="enable-background:new 0 0 323.2 46.3;" xml:space="preserve">
<g>
	<path d="M6.3,10.9c0.4-3.1,0.8-5.8,1.1-8.4c0.2-0.8,0.3-0.9,0.4-0.9c0.4,0,0.5,0.3,0.9,0.9c1.3,1.9,3.4,5.5,5.3,8.5l11.8,19.5
		l9.4-15.9c4-6.2,5.4-8.5,6.9-11.1c0.9-1.5,1.3-1.8,1.5-1.8c0.4,0,0.4,0.2,0.7,1.6c0.4,2.8,0.6,5.8,1,8.7
		c1.5,12.7,3.4,28.2,4.4,31.9c-0.6-0.1-1.8-0.1-4-0.1c-2.4,0-4.5,0-5.6,0.2c0-4.5-1.1-16.4-1.7-24.4C34.2,27.5,28.4,37,25.1,44
		c-0.4,0.7-0.6,0.5-0.8,0c-3.7-7.6-9.5-17.6-12.9-24.3c-0.6,8.8-1.5,19.8-1.5,24.2c-0.9-0.2-2.7-0.1-3.5-0.1c-2.3,0-4,0-4.8,0.2
		C2.4,40.2,4.8,23.5,6.3,10.9z"/>
	<path d="M59.6,22.1c0-7.7-0.3-12-0.7-13.5c1.1,0.2,3,0.2,4.8,0.2h11.9c1.8,0,4,0,4.9-0.3C80.3,9.5,80,12,80,15
		c-0.9-0.5-2.1-0.8-5.1-1.1c-1.7-0.2-4.9-0.2-7.1-0.2c-0.1,0-0.2,0-0.2,0.2v8.7c0,0.2,0.1,0.2,0.2,0.2c1.3,0,5.4-0.1,7.2-0.1
		c3.1-0.2,4-0.2,4.7-0.5c-0.4,1.9-0.6,5.2-0.6,6.6c-0.9-0.6-1.9-0.8-4.1-1c-1.5-0.2-5.8-0.2-7.3-0.2c-0.1,0-0.2,0-0.2,0.2v1.8
		c0,7.4,0.1,8.7,0.3,8.8c0.2,0.1,0.6,0.2,1.1,0.3c1.4,0.2,2.6,0.2,4.7,0.2c3.7,0,6.5-0.3,8.5-1.1c-0.6,1.8-1.1,4.6-1.3,6.2
		c-0.3,0.2-1,0.2-3,0.2c-6.4,0-10.3-0.3-13.7-0.3c-2.5,0-4.3,0-5.2,0.1c0.2-1.7,0.6-6.4,0.6-13.5L59.6,22.1L59.6,22.1z"/>
	<path d="M90.2,22c0-7.3-0.4-11.8-0.8-13.5c0.6,0,2.3,0.2,3.9,0.2c1.5,0,4.6-0.2,8.7-0.2c8.2,0,14,1.3,18.4,5.5
		c2.5,2.4,4.7,6.3,4.7,11.9s-2.6,10.1-5.3,12.8c-3,2.7-7.1,5.5-16.1,5.5c-2,0-4.1,0-5.7-0.2c-2.9-0.2-4.7-0.4-8.2-0.3
		c0.2-2,0.5-6.3,0.5-13.4L90.2,22L90.2,22z M98.1,27.7c0,5,0.1,6.5,0.1,7.5c0,2.2,0.1,2.9,0.4,3.2c0.6,0.5,3,1.1,5.8,1.1
		c3.3,0,6.3-0.5,8.9-3.1c2.4-2.4,3.3-5.9,3.3-9.4c0-3.2-0.7-6.4-2.8-9.2c-2.6-3.4-6.9-5-11.8-5c-1.7,0-2.9,0.2-3.5,0.3
		c-0.2,0.1-0.3,0.2-0.3,0.3c-0.1,1-0.1,3.7-0.1,7.9L98.1,27.7L98.1,27.7z"/>
	<path d="M134,22.1c0-6.6-0.2-11.8-0.7-13.5c0.7,0.2,2.4,0.1,3.7,0.1c2.9,0,4.8-0.1,5.4-0.3c-0.2,1.9-0.5,7-0.5,13.6v8.2
		c0,5.3,0.2,12,0.6,13.5c-0.6-0.1-2.1-0.1-3.8-0.1c-1.9,0-4.5,0.2-5.2,0.2c0.3-2,0.5-7.7,0.5-13.6V22.1z"/>
	<path d="M159.8,35.4c-0.2,0-0.2,0-0.2,0.2c-1.3,3.1-2.3,6.1-2.9,8.2c-0.8-0.1-1.7-0.1-3.5-0.1c-2.2,0-4,0.1-4.6,0.2
		c1.3-2.5,3.3-6.6,6.3-12.8l9.4-20.7c1-2,1.3-2.5,1.7-2.5s0.7,0.4,1.7,2.5c0.7,1.6,5.8,11.9,10.5,21.1c2.4,4.9,5,10.2,6.6,12.3
		c-1.8-0.1-3.4-0.1-4.1-0.1c-2.2,0-4.9,0.1-5.9,0.2c-0.9-2.1-2.5-6.1-3.6-8.3c0-0.1-0.1-0.2-0.2-0.2L159.8,35.4L159.8,35.4z
		 M169.2,30.5c0.1,0,0.2,0,0.1-0.2l-4.1-9.4l-3.9,9.4c0,0.2,0,0.2,0.1,0.2H169.2z"/>
	<path d="M190.6,22.1c0-6.6-0.2-11.5-0.5-13.5c0.8,0.2,1.7,0.1,3.2,0.1c2.4,0,4.5-0.2,7.9-0.2c6.5,0,9.7,1.2,12.2,3.2
		c1.5,1.3,3,3.6,3,6.9c0,7.2-6.3,11.4-13.8,11.3c-0.2-0.8-0.8-2.9-1.2-4c3.8-0.3,7.2-1.8,7.2-6.4c0-2.4-0.7-4-2-5
		c-1.3-1.1-2.8-1.9-5.7-1.9c-0.7,0-1.7,0-2.1,0.2c-0.2,0-0.3,0.1-0.3,1v16.5c0,5.3,0.3,11,0.5,13.4c-0.9-0.1-2.6-0.1-4.2-0.1
		c-1.5,0-4.2,0.2-4.9,0.2c0.3-2.1,0.5-7.8,0.5-13.6L190.6,22.1L190.6,22.1z"/>
	<path d="M226.6,35.4c-0.2,0-0.2,0-0.2,0.2c-1.3,3.1-2.3,6.1-2.9,8.2c-0.8-0.1-1.7-0.1-3.5-0.1c-2.2,0-4,0.1-4.6,0.2
		c1.3-2.5,3.3-6.6,6.3-12.8l9.4-20.7c1-2,1.3-2.5,1.7-2.5s0.7,0.4,1.7,2.5c0.7,1.6,5.8,11.9,10.5,21.1c2.4,4.9,5,10.2,6.6,12.3
		c-1.8-0.1-3.4-0.1-4.1-0.1c-2.2,0-4.9,0.1-5.9,0.2c-0.9-2.1-2.5-6.1-3.6-8.3c0-0.1-0.1-0.2-0.2-0.2L226.6,35.4L226.6,35.4z
		 M236,30.5c0.1,0,0.2,0,0.1-0.2l-4.1-9.4l-3.9,9.4c0,0.2,0,0.2,0.1,0.2H236z"/>
	<path d="M257.5,22.1c0-6.6-0.1-11.5-0.7-13.5c1.3,0.1,2.5,0.2,3.7,0.2c0.8,0,5.8-0.2,8-0.2c4.6,0,7.6,0.6,9.7,1.7
		c2.6,1.3,4.8,4,4.8,8c0,3.7-2.2,7-6,9.4c2.7,3.8,5.9,8.2,9,11.6c2.3,2.5,3.9,3.9,4.9,4.4c-1,0.4-3.6,0.5-5.5,0.5
		c-3.6,0-5.2-0.8-6.6-2.2c-2.9-2.6-6.7-9.2-8.4-11.5c-0.1-0.2-0.3-0.3-0.5-0.3h-4.3c-0.1,0-0.2,0-0.2,0.2v1.1c0,5.3,0.2,10,0.6,12.4
		c-0.8-0.1-2.2-0.1-3.7-0.1c-1.6,0-4.4,0.2-5.3,0.2c0.3-2.2,0.6-7.7,0.6-13.6L257.5,22.1L257.5,22.1z M265.3,24.7
		c0,0.4,0,0.5,0.2,0.5c0.8,0.4,2.5,0.5,4.7,0.5c1.2,0,2-0.2,2.5-0.5c1.3-0.9,2.6-2.5,2.6-5.3c0-5-3.8-7-7.2-7
		c-1.1,0-2.1,0.1-2.5,0.2c-0.1,0-0.2,0.2-0.2,0.3L265.3,24.7L265.3,24.7z"/>
	<path d="M288.8,8.1c1.5,0.4,3.9,0.6,8.4,0.6h16.5c3.5,0,7.1-0.2,8.2-0.5c-0.5,2.2-0.7,4.8-0.8,7c-1-0.7-2.8-1.1-5.4-1.3
		c-1.8-0.2-3.6-0.2-7.1-0.2v16.5c0,5.3,0.3,11.3,0.6,13.6c-0.8-0.1-2-0.1-3.6-0.1c-2.4,0-4.5,0.1-5.5,0.2c0.3-2,0.5-7.7,0.5-13.6
		V13.7c-2,0-3.1,0-6.2,0.1c-3.9,0.3-4.9,0.4-6.8,1C288.1,13.4,288.7,9.9,288.8,8.1z"/>
</g>
</svg>
